<?xml version="1.0" standalone="no"?>
<!DOCTYPE svg PUBLIC "-//W3C//DTD SVG 20010904//EN"
 "http://www.w3.org/TR/2001/REC-SVG-20010904/DTD/svg10.dtd">
<svg version="1.0" xmlns="http://www.w3.org/2000/svg"
 width="700.000000pt" height="700.000000pt" viewBox="0 0 700.000000 700.000000"
 preserveAspectRatio="xMidYMid meet">
<metadata>
Created by potrace 1.11, written by Peter Selinger 2001-2013
</metadata>
<g transform="translate(0.000000,700.000000) scale(0.100000,-0.100000)"
fill="#000000" stroke="none">
<path d="M4320 6980 c-494 -92 -902 -433 -1025 -855 -41 -143 -30 -226 48
-357 125 -209 304 -310 423 -238 22 13 68 52 104 86 280 265 611 516 885 669
114 63 271 140 305 150 3 0 33 11 67 24 l62 23 -20 52 c-22 55 -74 152 -93
172 -6 6 -27 32 -46 56 -72 93 -222 188 -345 218 -82 20 -257 20 -365 0z"/>
<path d="M5140 6960 c-44 -11 -36 -38 51 -167 71 -105 109 -180 190 -378 21
-51 68 -218 85 -296 15 -76 44 -264 50 -324 3 -38 8 -88 10 -110 5 -55 5 -360
-1 -415 -2 -25 -7 -76 -10 -115 -3 -38 -8 -77 -10 -85 -2 -8 -7 -37 -10 -65
-3 -27 -7 -61 -10 -75 -3 -14 -7 -41 -11 -60 -11 -69 -23 -135 -28 -160 -3
-14 -8 -38 -12 -55 -55 -267 -179 -692 -287 -980 -50 -134 -55 -218 -18 -300
30 -67 55 -92 126 -126 242 -116 516 -53 691 159 50 61 164 223 173 247 2 5
12 22 22 36 48 68 211 427 223 491 1 7 14 51 29 98 22 73 42 149 63 250 3 14
8 41 10 60 3 19 7 42 9 50 3 8 7 38 10 65 4 28 8 60 10 73 27 158 27 659 0
867 -20 161 -22 170 -46 237 -51 145 -118 244 -251 373 -184 178 -213 203
-408 358 -8 7 -37 28 -65 47 -27 19 -52 38 -55 41 -15 19 -234 146 -332 192
-136 66 -165 75 -198 67z"/>
<path d="M2733 5013 c-51 -17 -117 -79 -139 -130 -8 -21 -33 -83 -53 -138
-188 -500 -285 -753 -297 -777 -25 -49 -82 -74 -349 -157 l-259 -80 -51 28
c-243 138 -253 143 -305 144 -82 1 -96 -16 -280 -349 -91 -163 -169 -305 -175
-314 -5 -10 -27 -48 -47 -86 -21 -38 -48 -87 -61 -109 -225 -397 -242 -439
-234 -549 10 -127 75 -223 202 -297 28 -17 79 -48 114 -69 34 -22 65 -40 66
-40 2 0 48 -27 102 -60 54 -33 105 -64 113 -69 8 -5 96 -58 194 -118 98 -59
195 -117 215 -129 201 -117 482 -294 511 -320 19 -18 63 -73 98 -123 l63 -91
-33 -1 c-18 0 -40 -2 -48 -3 -8 -2 -51 -6 -95 -10 -71 -6 -131 -13 -257 -32
-21 -2 -51 -7 -67 -9 -17 -2 -38 -6 -48 -9 -10 -3 -36 -7 -58 -11 -109 -16
-364 -87 -455 -127 -222 -98 -279 -168 -284 -346 -5 -208 37 -280 219 -370
155 -77 449 -158 685 -188 25 -3 52 -7 60 -9 8 -2 43 -7 78 -10 35 -4 71 -8
81 -10 9 -2 57 -6 107 -10 49 -4 103 -9 119 -11 82 -10 350 -19 610 -19 309 0
490 9 630 30 17 3 53 7 80 10 62 7 254 41 315 56 381 94 665 216 855 368 71
57 94 135 61 200 -36 69 -201 176 -441 287 -196 90 -589 186 -900 219 -33 3
-76 8 -95 10 -39 5 -201 13 -359 20 -57 2 -105 6 -106 7 -2 2 -50 98 -108 213
-132 265 -162 306 -313 427 -38 31 -98 80 -134 109 -787 639 -749 606 -744
635 3 15 19 45 37 68 17 22 33 43 34 45 1 1 17 -8 35 -22 65 -50 48 -49 831
-49 l737 -1 83 -105 c45 -57 91 -117 102 -131 11 -14 55 -71 98 -126 43 -55
88 -111 98 -125 11 -14 34 -44 52 -67 55 -73 118 -91 178 -50 37 25 58 72 51
117 -2 18 -82 128 -218 302 -370 473 -408 521 -449 573 -22 27 -67 84 -99 125
-31 41 -68 89 -82 105 -13 17 -74 95 -136 174 -118 151 -147 174 -209 167 -18
-2 -44 -17 -63 -35 -26 -27 -31 -39 -30 -79 0 -52 -10 -36 234 -347 60 -77
110 -144 110 -148 0 -5 -10 -5 -22 -1 -13 4 -232 8 -488 9 -462 2 -542 7 -584
38 -9 7 -38 62 -64 122 -27 61 -56 126 -64 145 -9 19 -44 96 -77 170 -34 74
-73 147 -88 162 -15 15 -24 28 -20 28 8 0 85 -28 114 -42 25 -12 25 -13 139
-266 l82 -183 33 48 c29 41 33 56 32 103 -1 54 0 57 30 70 36 15 297 136 428
197 97 46 149 87 184 147 13 22 60 138 103 256 44 118 103 276 130 350 28 74
74 198 103 275 32 86 54 162 57 198 11 142 -88 239 -205 200z"/>
<path d="M1563 4855 c-77 -21 -148 -63 -209 -124 -54 -54 -110 -150 -120 -206
-3 -16 -7 -32 -10 -37 -3 -5 -5 -44 -5 -87 1 -130 44 -234 136 -327 100 -102
210 -145 349 -140 273 10 472 235 451 509 -22 288 -309 488 -592 412z"/>
</g>
</svg>
