<?xml version="1.0" standalone="no"?>
<!DOCTYPE svg PUBLIC "-//W3C//DTD SVG 20010904//EN"
 "http://www.w3.org/TR/2001/REC-SVG-20010904/DTD/svg10.dtd">
<svg version="1.0" xmlns="http://www.w3.org/2000/svg"
 width="569.000000pt" height="569.000000pt" viewBox="0 0 569.000000 569.000000"
 preserveAspectRatio="xMidYMid meet">
<metadata>
Created by potrace 1.11, written by Peter Selinger 2001-2013
</metadata>
<g transform="translate(0.000000,569.000000) scale(0.100000,-0.100000)"
fill="#000000" stroke="none">
<path d="M3535 5679 c-97 -16 -231 -60 -331 -109 -260 -126 -448 -337 -524
-589 -40 -131 -14 -238 90 -369 52 -67 110 -108 177 -128 49 -14 55 -14 95 4
24 11 88 61 143 112 156 143 346 293 510 402 145 97 386 224 473 249 52 15 53
25 6 119 -50 99 -152 206 -244 254 -112 59 -254 79 -395 55z"/>
<path d="M4160 5638 c0 -14 25 -63 55 -109 257 -389 341 -957 234 -1579 -45
-260 -128 -569 -235 -879 -74 -214 -79 -257 -38 -339 28 -57 61 -82 149 -112
128 -44 243 -34 367 32 199 106 459 576 547 988 44 208 55 324 55 590 1 526
-43 656 -306 904 -150 141 -279 245 -418 338 -126 84 -313 178 -369 185 -38 5
-41 4 -41 -19z"/>
<path d="M2195 4061 c-47 -28 -80 -74 -109 -148 -14 -37 -77 -205 -141 -373
-63 -168 -123 -316 -133 -330 -23 -31 -79 -54 -304 -123 l-177 -54 -123 68
c-102 57 -131 69 -169 69 -34 0 -52 -6 -70 -22 -28 -26 -542 -945 -564 -1009
-19 -53 -19 -112 0 -177 30 -99 60 -121 645 -473 294 -177 552 -338 573 -358
32 -30 127 -154 127 -165 0 -2 -28 -7 -62 -10 -443 -45 -724 -111 -890 -209
-95 -55 -127 -108 -135 -221 -8 -100 10 -174 52 -224 129 -150 574 -257 1210
-292 704 -38 1245 41 1644 241 160 80 250 148 268 201 17 53 1 99 -50 143 -90
78 -303 186 -477 243 -238 78 -664 142 -947 142 l-73 0 -89 178 c-49 99 -109
202 -134 232 -26 32 -208 186 -435 370 -215 173 -394 323 -397 333 -6 15 8 44
46 99 3 5 28 -4 55 -19 l49 -28 605 -2 605 -2 158 -203 c219 -280 232 -295
264 -301 35 -7 88 15 102 41 6 12 11 36 11 55 0 30 -56 105 -440 598 -287 368
-452 570 -472 581 -56 30 -122 -4 -134 -69 -8 -40 -9 -39 157 -250 71 -91 129
-165 129 -166 0 -1 -183 1 -407 4 -315 4 -418 9 -452 20 l-43 14 -100 225
c-55 124 -111 239 -124 257 l-24 32 57 -24 57 -23 78 -173 c43 -95 80 -174 82
-176 2 -2 14 11 27 29 17 23 24 47 25 81 l0 48 225 105 c222 104 263 131 298
189 32 53 314 828 319 876 12 129 -93 211 -193 150z"/>
<path d="M1269 3947 c-104 -30 -199 -112 -247 -215 -23 -49 -27 -71 -27 -152
0 -86 3 -101 32 -162 94 -200 331 -279 524 -177 276 147 265 549 -18 681 -77
37 -187 47 -264 25z"/>
</g>
</svg>
